<?xml version="1.0" encoding="utf-8"?>
<!-- Generator: Adobe Illustrator 23.0.0, SVG Export Plug-In . SVG Version: 6.00 Build 0)  -->
<svg version="1.1" id="圖層_1" xmlns="http://www.w3.org/2000/svg" xmlns:xlink="http://www.w3.org/1999/xlink" x="0px" y="0px"
	 viewBox="0 0 32 32" style="enable-background:new 0 0 32 32;" xml:space="preserve">
<style type="text/css">
	.st0{fill:#131313;}
</style>
<path class="st0" d="M21.8,13.1c1.3,0,2.3-1,2.3-2.3s-1-2.3-2.3-2.3c-1.3,0-2.3,1-2.3,2.3S20.5,13.1,21.8,13.1z M2,7.8
	c0-1.3,1-2.3,2.3-2.3h23.3c1.3,0,2.3,1,2.3,2.3v16.3c0,1.3-1,2.3-2.3,2.3l-23.3,0c-1.3,0-2.3-1-2.3-2.3V7.8z M28.8,22.8V7.8
	c0-0.6-0.5-1.2-1.2-1.2H4.3c-0.6,0-1.2,0.5-1.2,1.2v13.5l9.2-9.2l7.3,7.3l-5.9,5.9H15l8.2-8.2L28.8,22.8z"/>
</svg>
