<?xml version="1.0" standalone="no"?><!DOCTYPE svg PUBLIC "-//W3C//DTD SVG 1.1//EN" "http://www.w3.org/Graphics/SVG/1.1/DTD/svg11.dtd"><svg t="1533179649299" class="icon" style="" viewBox="0 0 1024 1024" version="1.1" xmlns="http://www.w3.org/2000/svg" p-id="5053" xmlns:xlink="http://www.w3.org/1999/xlink" width="32" height="32"><defs><style type="text/css"></style></defs><path d="M698.6664 418.6664c41.2376 0 74.6664-33.4296 74.6664-74.6664s-33.4296-74.6664-74.6664-74.6664C657.4296 269.3336 624 302.7624 624 344S657.4296 418.6664 698.6664 418.6664zM64 250.6992C64 209.4352 97.5024 176 138.7584 176l746.4832 0C926.5112 176 960 209.4528 960 250.6992l0 522.6016c0 41.264-33.5024 74.6992-74.7584 74.6992L138.7584 848C97.4888 848 64 814.5472 64 773.3008L64 250.6992zM922.6664 729.092 922.6664 250.6992c0-20.6088-16.7552-37.3656-37.4248-37.3656L138.7584 213.3336c-20.6464 0-37.4256 16.7296-37.4256 37.3656l0 431.452L395.196 388.288l232.2576 232.2576-190.1208 190.1208 44.2408 0 261.3336-261.3336L922.6664 729.092z" p-id="5054" fill="#e6e6e6"></path></svg>